# xmcd
# Track frame offsets:
# 150
# 18674
# 36972
# 57686
# 76018
# 97916
# 114791
# 137199
# 154793
# 177184
# 193061
# 219031
#
# Disc length: 3210 seconds
# Revision: 0
# Processed by: cddbd v1.5.2PL0 Copyright (c) Steve Scherf et al.
# Submitted via: VisiTrax 2.11.1.266 - For more info visit www.synapsa.com
#
DISCID=970c880c
DTITLE=Bobby Duncan - Faith, Hope and Everything Else
DYEAR=2009
DGENRE=Country
TTITLE0=These Days
TTITLE1=Before I Found You
TTITLE2=Changes
TTITLE3=Should I Give Any More of Me
TTITLE4=That Much
TTITLE5=Still Don't Have You
TTITLE6=What's on Your Mind
TTITLE7=Waiting to Hurt
TTITLE8=Northing Left to Lose
TTITLE9=Salvation
TTITLE10=Long Road Home
TTITLE11=Losin' Someone
EXTD=Winding Road Records\nSubmitted by Larry@LosSenderosStudio.com
EXTT0=
EXTT1=
EXTT2=
EXTT3=
EXTT4=
EXTT5=
EXTT6=
EXTT7=
EXTT8=
EXTT9=
EXTT10=
EXTT11=
PLAYORDER=
